%TF.GenerationSoftware,KiCad,Pcbnew,(7.0.0)*%
%TF.CreationDate,2023-03-03T13:32:30+01:00*%
%TF.ProjectId,Solar Cell offgrid Power,536f6c61-7220-4436-956c-6c206f666667,rev?*%
%TF.SameCoordinates,Original*%
%TF.FileFunction,Copper,L1,Top*%
%TF.FilePolarity,Positive*%
%FSLAX46Y46*%
G04 Gerber Fmt 4.6, Leading zero omitted, Abs format (unit mm)*
G04 Created by KiCad (PCBNEW (7.0.0)) date 2023-03-03 13:32:30*
%MOMM*%
%LPD*%
G01*
G04 APERTURE LIST*
G04 Aperture macros list*
%AMRoundRect*
0 Rectangle with rounded corners*
0 $1 Rounding radius*
0 $2 $3 $4 $5 $6 $7 $8 $9 X,Y pos of 4 corners*
0 Add a 4 corners polygon primitive as box body*
4,1,4,$2,$3,$4,$5,$6,$7,$8,$9,$2,$3,0*
0 Add four circle primitives for the rounded corners*
1,1,$1+$1,$2,$3*
1,1,$1+$1,$4,$5*
1,1,$1+$1,$6,$7*
1,1,$1+$1,$8,$9*
0 Add four rect primitives between the rounded corners*
20,1,$1+$1,$2,$3,$4,$5,0*
20,1,$1+$1,$4,$5,$6,$7,0*
20,1,$1+$1,$6,$7,$8,$9,0*
20,1,$1+$1,$8,$9,$2,$3,0*%
G04 Aperture macros list end*
%TA.AperFunction,SMDPad,CuDef*%
%ADD10RoundRect,0.250000X-0.262500X-0.450000X0.262500X-0.450000X0.262500X0.450000X-0.262500X0.450000X0*%
%TD*%
%TA.AperFunction,SMDPad,CuDef*%
%ADD11RoundRect,0.150000X-0.150000X0.512500X-0.150000X-0.512500X0.150000X-0.512500X0.150000X0.512500X0*%
%TD*%
%TA.AperFunction,SMDPad,CuDef*%
%ADD12R,3.000000X3.000000*%
%TD*%
%TA.AperFunction,ComponentPad*%
%ADD13R,1.700000X1.700000*%
%TD*%
%TA.AperFunction,ComponentPad*%
%ADD14O,1.700000X1.700000*%
%TD*%
%TA.AperFunction,SMDPad,CuDef*%
%ADD15R,1.500000X1.500000*%
%TD*%
%TA.AperFunction,SMDPad,CuDef*%
%ADD16RoundRect,0.250000X-0.250000X-0.750000X0.250000X-0.750000X0.250000X0.750000X-0.250000X0.750000X0*%
%TD*%
%TA.AperFunction,ComponentPad*%
%ADD17C,2.400000*%
%TD*%
%TA.AperFunction,SMDPad,CuDef*%
%ADD18RoundRect,0.225000X-0.225000X-0.375000X0.225000X-0.375000X0.225000X0.375000X-0.225000X0.375000X0*%
%TD*%
%TA.AperFunction,ComponentPad*%
%ADD19R,2.200000X2.200000*%
%TD*%
%TA.AperFunction,ComponentPad*%
%ADD20C,2.200000*%
%TD*%
%TA.AperFunction,ViaPad*%
%ADD21C,0.800000*%
%TD*%
%TA.AperFunction,Conductor*%
%ADD22C,0.150000*%
%TD*%
%TA.AperFunction,Conductor*%
%ADD23C,0.200000*%
%TD*%
%TA.AperFunction,Conductor*%
%ADD24C,1.000000*%
%TD*%
%TA.AperFunction,Conductor*%
%ADD25C,0.400000*%
%TD*%
G04 APERTURE END LIST*
D10*
%TO.P,R1,1*%
%TO.N,Net-(D1-A)*%
X127087500Y-93360000D03*
%TO.P,R1,2*%
%TO.N,Net-(T1-B)*%
X128912500Y-93360000D03*
%TD*%
D11*
%TO.P,T2,3,C*%
%TO.N,PWR*%
X125450000Y-89367500D03*
%TO.P,T2,2,E*%
%TO.N,BAT+*%
X124500000Y-87092500D03*
%TO.P,T2,1,B*%
%TO.N,Net-(T1-B)*%
X126400000Y-87092500D03*
%TD*%
%TO.P,T1,1,B*%
%TO.N,Net-(T1-B)*%
X122780000Y-87155000D03*
%TO.P,T1,2,E*%
%TO.N,BAT+*%
X120880000Y-87155000D03*
%TO.P,T1,3,C*%
%TO.N,PWR*%
X121830000Y-89430000D03*
%TD*%
D12*
%TO.P,TPBAT_NEG1,1,1*%
%TO.N,GND*%
X213589999Y-76289999D03*
%TD*%
D13*
%TO.P,J2,1,Pin_1*%
%TO.N,Conn_track_1*%
X113289999Y-111149999D03*
D14*
%TO.P,J2,2,Pin_2*%
%TO.N,Conn_track_2*%
X113289999Y-108609999D03*
%TO.P,J2,3,Pin_3*%
%TO.N,Conn_track_3*%
X113289999Y-106069999D03*
%TO.P,J2,4,Pin_4*%
%TO.N,Conn_track_4*%
X113289999Y-103529999D03*
%TO.P,J2,5,Pin_5*%
%TO.N,PWR*%
X113289999Y-100989999D03*
%TO.P,J2,6,Pin_6*%
%TO.N,GND*%
X113289999Y-98449999D03*
%TO.P,J2,7,Pin_7*%
%TO.N,Conn_track_7*%
X113289999Y-95909999D03*
%TO.P,J2,8,Pin_8*%
%TO.N,Conn_track_8*%
X113289999Y-93369999D03*
%TO.P,J2,9,Pin_9*%
%TO.N,Conn_track_9*%
X113289999Y-90829999D03*
%TO.P,J2,10,Pin_10*%
%TO.N,Conn_track_10*%
X113289999Y-88289999D03*
%TD*%
D15*
%TO.P,BK4,1,1*%
%TO.N,BAT+*%
X161369999Y-132239999D03*
%TO.P,BK4,2,2*%
%TO.N,Conn_track_1*%
X161369999Y-130379999D03*
%TD*%
%TO.P,BK8,1,1*%
%TO.N,BAT+*%
X172739999Y-132224999D03*
%TO.P,BK8,2,2*%
%TO.N,Conn_track_7*%
X172739999Y-130364999D03*
%TD*%
D16*
%TO.P,J4,1,Pin_1*%
%TO.N,Net-(J4-Pin_1)*%
X119900000Y-125080000D03*
%TO.P,J4,2,Pin_2*%
%TO.N,PWR*%
X122390000Y-125070000D03*
%TO.P,J4,3,Pin_3*%
%TO.N,PWR_HOME*%
X124910000Y-125080000D03*
%TO.P,J4,4,Pin_4*%
X124830000Y-119450000D03*
%TO.P,J4,5,Pin_5*%
%TO.N,PWR*%
X122410000Y-119430000D03*
%TO.P,J4,6,Pin_6*%
%TO.N,Net-(J4-Pin_1)*%
X119900000Y-119440000D03*
%TD*%
D17*
%TO.P,BT2,1+*%
%TO.N,BAT+*%
X135460000Y-77270000D03*
%TO.P,BT2,1-*%
%TO.N,GND*%
X208360000Y-77270000D03*
%TO.P,BT2,2+*%
%TO.N,BAT+*%
X135460000Y-96570000D03*
%TO.P,BT2,2-*%
%TO.N,GND*%
X208360000Y-96570000D03*
%TD*%
D15*
%TO.P,BK7,1,1*%
%TO.N,BAT+*%
X169589999Y-132219999D03*
%TO.P,BK7,2,2*%
%TO.N,Conn_track_4*%
X169589999Y-130359999D03*
%TD*%
D12*
%TO.P,BAT_POS2,1,1*%
%TO.N,BAT+*%
X131169999Y-77089999D03*
%TD*%
D15*
%TO.P,BK6,1,1*%
%TO.N,BAT+*%
X166749999Y-132249999D03*
%TO.P,BK6,2,2*%
%TO.N,Conn_track_3*%
X166749999Y-130389999D03*
%TD*%
D12*
%TO.P,TPSC_NEG1,1,1*%
%TO.N,GND*%
X231839999Y-130129999D03*
%TD*%
D15*
%TO.P,BK3,1,1*%
%TO.N,BAT+*%
X181869999Y-132234999D03*
%TO.P,BK3,2,2*%
%TO.N,Conn_track_10*%
X181869999Y-130374999D03*
%TD*%
%TO.P,BK2,1,1*%
%TO.N,BAT+*%
X178829999Y-132174999D03*
%TO.P,BK2,2,2*%
%TO.N,Conn_track_9*%
X178829999Y-130314999D03*
%TD*%
D13*
%TO.P,J1,1,Pin_1*%
%TO.N,Conn_track_1*%
X223579999Y-111109999D03*
D14*
%TO.P,J1,2,Pin_2*%
%TO.N,Conn_track_2*%
X223579999Y-108569999D03*
%TO.P,J1,3,Pin_3*%
%TO.N,Conn_track_3*%
X223579999Y-106029999D03*
%TO.P,J1,4,Pin_4*%
%TO.N,Conn_track_4*%
X223579999Y-103489999D03*
%TO.P,J1,5,Pin_5*%
%TO.N,PWR*%
X223579999Y-100949999D03*
%TO.P,J1,6,Pin_6*%
%TO.N,GND*%
X223579999Y-98409999D03*
%TO.P,J1,7,Pin_7*%
%TO.N,Conn_track_7*%
X223579999Y-95869999D03*
%TO.P,J1,8,Pin_8*%
%TO.N,Conn_track_8*%
X223579999Y-93329999D03*
%TO.P,J1,9,Pin_9*%
%TO.N,Conn_track_9*%
X223579999Y-90789999D03*
%TO.P,J1,10,Pin_10*%
%TO.N,Conn_track_10*%
X223579999Y-88249999D03*
%TD*%
D18*
%TO.P,D1,1,K*%
%TO.N,BAT+*%
X128450000Y-89670000D03*
%TO.P,D1,2,A*%
%TO.N,Net-(D1-A)*%
X131750000Y-89670000D03*
%TD*%
D19*
%TO.P,J3,1,Pin_1*%
%TO.N,GND*%
X112829999Y-79329999D03*
D20*
%TO.P,J3,2,Pin_2*%
%TO.N,PWR_HOME*%
X112830000Y-81870000D03*
%TD*%
D12*
%TO.P,SC_POS1,1,1*%
%TO.N,Net-(D1-A)*%
X231709999Y-69829999D03*
%TD*%
D15*
%TO.P,BK1,1,1*%
%TO.N,BAT+*%
X175719999Y-132194999D03*
%TO.P,BK1,2,2*%
%TO.N,Conn_track_8*%
X175719999Y-130334999D03*
%TD*%
%TO.P,BK5,1,1*%
%TO.N,BAT+*%
X164069999Y-132239999D03*
%TO.P,BK5,2,2*%
%TO.N,Conn_track_2*%
X164069999Y-130379999D03*
%TD*%
D21*
%TO.N,Conn_track_10*%
X181720000Y-126330000D03*
%TO.N,Conn_track_9*%
X178850000Y-126340000D03*
%TO.N,Conn_track_8*%
X175220000Y-126070000D03*
%TO.N,Conn_track_7*%
X172250000Y-126360000D03*
%TO.N,Conn_track_4*%
X168910000Y-126520000D03*
%TO.N,Conn_track_3*%
X166560000Y-126250000D03*
%TO.N,Conn_track_2*%
X164010000Y-126150000D03*
%TO.N,Conn_track_1*%
X161340000Y-126200000D03*
%TO.N,BAT+*%
X183690000Y-130770000D03*
X181690000Y-109880000D03*
%TO.N,Conn_track_10*%
X178540000Y-109910000D03*
%TO.N,Conn_track_9*%
X177080000Y-110000000D03*
%TO.N,Conn_track_8*%
X175220000Y-109990000D03*
%TO.N,Conn_track_7*%
X172070000Y-109930000D03*
%TO.N,Conn_track_4*%
X168880000Y-109910000D03*
%TO.N,Conn_track_3*%
X166090000Y-110010000D03*
%TO.N,Conn_track_2*%
X163190000Y-109900000D03*
%TO.N,Net-(D1-A)*%
X165380000Y-89680000D03*
X132900000Y-89680000D03*
%TO.N,BAT+*%
X181720000Y-87070000D03*
X125090000Y-85385000D03*
%TO.N,Conn_track_8*%
X175230000Y-92150000D03*
%TO.N,GND*%
X115170000Y-85350000D03*
%TO.N,Conn_track_9*%
X177070000Y-90770000D03*
%TO.N,Conn_track_10*%
X178560000Y-88190000D03*
%TO.N,Conn_track_2*%
X163290000Y-107620000D03*
%TO.N,Conn_track_3*%
X166090000Y-105980000D03*
%TO.N,Conn_track_4*%
X168860000Y-103530000D03*
%TO.N,Conn_track_7*%
X172030000Y-93670000D03*
%TD*%
D22*
%TO.N,Net-(T1-B)*%
X126530000Y-88200000D02*
X126560000Y-88170000D01*
X123170000Y-88200000D02*
X126530000Y-88200000D01*
X122780000Y-87810000D02*
X123170000Y-88200000D01*
X122780000Y-87155000D02*
X122780000Y-87810000D01*
D23*
X126560000Y-87252500D02*
X126400000Y-87092500D01*
X125660000Y-94120000D02*
X125660000Y-92160000D01*
X126560000Y-91260000D02*
X126560000Y-87252500D01*
X126460000Y-94920000D02*
X125660000Y-94120000D01*
X125660000Y-92160000D02*
X126560000Y-91260000D01*
X128250000Y-94920000D02*
X126460000Y-94920000D01*
X128912500Y-94257500D02*
X128250000Y-94920000D01*
X128912500Y-93360000D02*
X128912500Y-94257500D01*
D24*
%TO.N,PWR*%
X121820000Y-93290000D02*
X121820000Y-94570000D01*
X125450000Y-89660000D02*
X121820000Y-93290000D01*
X125450000Y-89367500D02*
X125450000Y-89660000D01*
D23*
%TO.N,Net-(D1-A)*%
X127087500Y-92522500D02*
X127087500Y-93360000D01*
X130770000Y-91450000D02*
X128160000Y-91450000D01*
X131750000Y-90470000D02*
X130770000Y-91450000D01*
X131750000Y-89670000D02*
X131750000Y-90470000D01*
X128160000Y-91450000D02*
X127087500Y-92522500D01*
D25*
%TO.N,BAT+*%
X128450000Y-86650000D02*
X128450000Y-89670000D01*
X125090000Y-85385000D02*
X127185000Y-85385000D01*
X127185000Y-85385000D02*
X128450000Y-86650000D01*
X121725000Y-85385000D02*
X120900000Y-86210000D01*
X125090000Y-85385000D02*
X121725000Y-85385000D01*
X120900000Y-86210000D02*
X120900000Y-87255000D01*
X124500000Y-85475000D02*
X124410000Y-85385000D01*
X124500000Y-87092500D02*
X124500000Y-85475000D01*
D24*
%TO.N,PWR*%
X121820000Y-94570000D02*
X121820000Y-102410000D01*
X121820000Y-89980000D02*
X121820000Y-94570000D01*
D23*
%TO.N,Net-(D1-A)*%
X131790000Y-89630000D02*
X131750000Y-89670000D01*
X132850000Y-89630000D02*
X131790000Y-89630000D01*
X132900000Y-89680000D02*
X132850000Y-89630000D01*
D22*
%TO.N,Conn_track_1*%
X161370000Y-126350000D02*
X161310000Y-126290000D01*
X161370000Y-130380000D02*
X161370000Y-126350000D01*
%TO.N,Conn_track_3*%
X166750000Y-126400000D02*
X166580000Y-126230000D01*
X166750000Y-130390000D02*
X166750000Y-126400000D01*
%TO.N,Conn_track_4*%
X169590000Y-127300000D02*
X168900000Y-126610000D01*
X169590000Y-130360000D02*
X169590000Y-127300000D01*
%TO.N,Conn_track_7*%
X172740000Y-126890000D02*
X172190000Y-126340000D01*
X172740000Y-130365000D02*
X172740000Y-126890000D01*
%TO.N,Conn_track_8*%
X175720000Y-126500000D02*
X175220000Y-126000000D01*
X175720000Y-130335000D02*
X175720000Y-126500000D01*
%TO.N,Conn_track_9*%
X178830000Y-126340000D02*
X178840000Y-126330000D01*
X178830000Y-130315000D02*
X178830000Y-126340000D01*
%TO.N,Conn_track_10*%
X181870000Y-126560000D02*
X181550000Y-126240000D01*
X181870000Y-130375000D02*
X181870000Y-126560000D01*
%TO.N,BAT+*%
X182265000Y-132235000D02*
X183800000Y-130700000D01*
X181870000Y-132235000D02*
X182265000Y-132235000D01*
D23*
X181720000Y-87070000D02*
X181720000Y-109750000D01*
D22*
%TO.N,Conn_track_10*%
X178560000Y-109860000D02*
X178580000Y-109880000D01*
X178560000Y-88190000D02*
X178560000Y-109860000D01*
%TO.N,Conn_track_9*%
X177070000Y-109950000D02*
X177060000Y-109960000D01*
X177070000Y-90770000D02*
X177070000Y-109950000D01*
%TO.N,Conn_track_8*%
X175230000Y-92150000D02*
X175230000Y-109840000D01*
%TO.N,Conn_track_7*%
X172030000Y-109780000D02*
X172100000Y-109850000D01*
X172030000Y-93670000D02*
X172030000Y-109780000D01*
%TO.N,Conn_track_4*%
X168860000Y-109790000D02*
X168850000Y-109800000D01*
X168860000Y-103530000D02*
X168860000Y-109790000D01*
D23*
%TO.N,Conn_track_3*%
X166090000Y-105980000D02*
X166090000Y-109990000D01*
%TO.N,Conn_track_2*%
X163290000Y-109840000D02*
X163280000Y-109850000D01*
X163290000Y-107620000D02*
X163290000Y-109840000D01*
D24*
%TO.N,GND*%
X216820000Y-116430000D02*
X231840000Y-116430000D01*
X213290000Y-112900000D02*
X216820000Y-116430000D01*
X148260000Y-112900000D02*
X213290000Y-112900000D01*
X130460000Y-130700000D02*
X148260000Y-112900000D01*
X115970000Y-130700000D02*
X130460000Y-130700000D01*
X110720000Y-125450000D02*
X115970000Y-130700000D01*
X110720000Y-102200000D02*
X110720000Y-125450000D01*
X231840000Y-116430000D02*
X231840000Y-101300000D01*
X231840000Y-123990000D02*
X231840000Y-116430000D01*
%TO.N,PWR*%
X213020000Y-111510000D02*
X223580000Y-100950000D01*
X129182500Y-111440000D02*
X129252500Y-111510000D01*
X129252500Y-111510000D02*
X213020000Y-111510000D01*
%TO.N,BAT+*%
X131200000Y-77300000D02*
X131020000Y-77120000D01*
X135430000Y-77300000D02*
X131200000Y-77300000D01*
X135460000Y-77270000D02*
X135430000Y-77300000D01*
D25*
X131020000Y-79390000D02*
X131020000Y-77120000D01*
X125090000Y-85320000D02*
X131020000Y-79390000D01*
X125090000Y-85385000D02*
X125090000Y-85320000D01*
%TO.N,Net-(D1-A)*%
X165350000Y-89680000D02*
X186220000Y-68810000D01*
X165380000Y-89680000D02*
X165350000Y-89680000D01*
X165380000Y-89650000D02*
X165380000Y-89680000D01*
D24*
%TO.N,BAT+*%
X135460000Y-96570000D02*
X135460000Y-77270000D01*
%TO.N,GND*%
X208360000Y-96570000D02*
X208360000Y-77270000D01*
D22*
%TO.N,BAT+*%
X181865000Y-132240000D02*
X181870000Y-132235000D01*
X161370000Y-132240000D02*
X181865000Y-132240000D01*
D25*
%TO.N,Net-(D1-A)*%
X165400000Y-89630000D02*
X165380000Y-89650000D01*
X186220000Y-68810000D02*
X230690000Y-68810000D01*
X230690000Y-68810000D02*
X231710000Y-69830000D01*
D22*
%TO.N,Conn_track_8*%
X174990000Y-92390000D02*
X175230000Y-92150000D01*
D24*
%TO.N,PWR*%
X122390000Y-108140000D02*
X115240000Y-100990000D01*
X122390000Y-121660000D02*
X122390000Y-108140000D01*
X129182500Y-109772500D02*
X129182500Y-128080000D01*
X115240000Y-100990000D02*
X113290000Y-100990000D01*
X129172500Y-128070000D02*
X123890000Y-128070000D01*
X122390000Y-126570000D02*
X122390000Y-125070000D01*
X123890000Y-128070000D02*
X122390000Y-126570000D01*
X129182500Y-128080000D02*
X129172500Y-128070000D01*
X122390000Y-119450000D02*
X122410000Y-119430000D01*
X122390000Y-121660000D02*
X122390000Y-119450000D01*
X121820000Y-102410000D02*
X129182500Y-109772500D01*
X121822500Y-89977500D02*
X121820000Y-89980000D01*
X122390000Y-125070000D02*
X122390000Y-121660000D01*
D25*
%TO.N,GND*%
X110720000Y-98460000D02*
X110730000Y-98450000D01*
D24*
X231770000Y-98410000D02*
X223580000Y-98410000D01*
X110730000Y-98450000D02*
X113290000Y-98450000D01*
X110720000Y-102200000D02*
X110720000Y-98460000D01*
X231840000Y-101300000D02*
X231840000Y-98480000D01*
X221440000Y-76290000D02*
X213590000Y-76290000D01*
D25*
X231840000Y-130130000D02*
X231270000Y-130700000D01*
D24*
X231840000Y-130130000D02*
X231840000Y-123990000D01*
X231840000Y-86690000D02*
X221440000Y-76290000D01*
X209350000Y-77300000D02*
X212580000Y-77300000D01*
D25*
X115170000Y-85350000D02*
X115140000Y-85290000D01*
D24*
X110720000Y-102200000D02*
X110720000Y-87070000D01*
D25*
X231840000Y-98480000D02*
X231770000Y-98410000D01*
D24*
X112440000Y-85350000D02*
X115170000Y-85350000D01*
X110720000Y-87070000D02*
X112440000Y-85350000D01*
X231840000Y-101300000D02*
X231840000Y-86690000D01*
X212580000Y-77300000D02*
X213590000Y-76290000D01*
D22*
%TO.N,Conn_track_2*%
X164070000Y-130380000D02*
X164070000Y-126080000D01*
X163340000Y-107650000D02*
X163420000Y-107570000D01*
%TO.N,Conn_track_3*%
X166020000Y-106040000D02*
X166010000Y-106030000D01*
D24*
%TO.N,PWR_HOME*%
X113130000Y-82170000D02*
X115610000Y-82170000D01*
X118230000Y-101470000D02*
X124910000Y-108150000D01*
X115610000Y-82170000D02*
X118230000Y-84790000D01*
D25*
X113130000Y-82170000D02*
X112830000Y-81870000D01*
D24*
X124910000Y-108150000D02*
X124910000Y-125080000D01*
X118230000Y-84790000D02*
X118230000Y-101470000D01*
%TO.N,Net-(J4-Pin_1)*%
X119900000Y-125080000D02*
X119900000Y-119440000D01*
D22*
%TO.N,Conn_track_4*%
X168910000Y-103530000D02*
X168930000Y-103510000D01*
X168860000Y-103530000D02*
X168910000Y-103530000D01*
X168860000Y-103580000D02*
X168860000Y-103580000D01*
%TO.N,Conn_track_7*%
X172010000Y-93690000D02*
X172030000Y-93670000D01*
%TD*%
%TA.AperFunction,Conductor*%
%TO.N,Net-(D1-A)*%
G36*
X232721137Y-65691096D02*
G01*
X232892941Y-65708018D01*
X232916769Y-65712757D01*
X233081001Y-65762576D01*
X233103453Y-65771877D01*
X233254798Y-65852772D01*
X233275010Y-65866277D01*
X233407666Y-65975145D01*
X233424854Y-65992333D01*
X233533722Y-66124989D01*
X233547227Y-66145201D01*
X233628121Y-66296543D01*
X233637424Y-66319001D01*
X233687240Y-66483224D01*
X233691982Y-66507065D01*
X233708903Y-66678862D01*
X233709500Y-66691016D01*
X233709500Y-74187648D01*
X233708900Y-74199829D01*
X233691904Y-74372013D01*
X233687141Y-74395904D01*
X233637110Y-74560450D01*
X233627769Y-74582948D01*
X233546538Y-74734530D01*
X233532977Y-74754768D01*
X233423671Y-74887551D01*
X233406416Y-74904748D01*
X233273261Y-75013596D01*
X233252976Y-75027087D01*
X233101113Y-75107800D01*
X233078582Y-75117065D01*
X232913862Y-75166530D01*
X232889955Y-75171210D01*
X232712646Y-75188098D01*
X232700463Y-75188656D01*
X231075120Y-75183078D01*
X226682320Y-75168003D01*
X225352643Y-75163439D01*
X225340522Y-75162804D01*
X225313957Y-75160101D01*
X225164091Y-75144854D01*
X225140316Y-75140051D01*
X224976590Y-75089886D01*
X224954205Y-75080546D01*
X224803381Y-74999471D01*
X224783242Y-74985952D01*
X224651085Y-74877066D01*
X224633964Y-74859886D01*
X224525533Y-74727358D01*
X224512083Y-74707173D01*
X224431525Y-74556070D01*
X224422262Y-74533653D01*
X224422050Y-74532953D01*
X224372660Y-74369757D01*
X224367939Y-74345968D01*
X224350594Y-74169469D01*
X224350000Y-74157342D01*
X224350000Y-66696093D01*
X224350597Y-66683939D01*
X224351290Y-66676895D01*
X224368018Y-66507056D01*
X224372757Y-66483232D01*
X224422577Y-66318994D01*
X224431875Y-66296549D01*
X224512775Y-66145195D01*
X224526272Y-66124995D01*
X224635149Y-65992328D01*
X224652328Y-65975149D01*
X224784995Y-65866272D01*
X224805195Y-65852775D01*
X224956549Y-65771875D01*
X224978994Y-65762577D01*
X225143232Y-65712757D01*
X225167056Y-65708018D01*
X225338862Y-65691096D01*
X225351016Y-65690500D01*
X232708984Y-65690500D01*
X232721137Y-65691096D01*
G37*
%TD.AperFunction*%
%TD*%
%TA.AperFunction,Conductor*%
%TO.N,GND*%
G36*
X218034926Y-72081953D02*
G01*
X218211806Y-72099374D01*
X218235634Y-72104113D01*
X218399866Y-72153932D01*
X218422318Y-72163233D01*
X218573663Y-72244128D01*
X218593875Y-72257633D01*
X218726531Y-72366501D01*
X218743719Y-72383689D01*
X218852587Y-72516345D01*
X218866092Y-72536557D01*
X218946986Y-72687899D01*
X218956289Y-72710357D01*
X219006105Y-72874580D01*
X219010847Y-72898421D01*
X219028268Y-73075295D01*
X219028865Y-73087449D01*
X219028865Y-80640812D01*
X219028272Y-80652924D01*
X219010973Y-80829180D01*
X219006264Y-80852940D01*
X218956794Y-81016635D01*
X218947555Y-81039027D01*
X218867205Y-81189978D01*
X218853790Y-81210146D01*
X218745625Y-81342599D01*
X218728545Y-81359774D01*
X218596694Y-81468672D01*
X218576599Y-81482200D01*
X218426092Y-81563385D01*
X218403752Y-81572747D01*
X218240337Y-81623123D01*
X218216603Y-81627964D01*
X218040443Y-81646238D01*
X218028335Y-81646898D01*
X209201119Y-81695803D01*
X209188991Y-81695276D01*
X209012444Y-81678917D01*
X208988636Y-81674330D01*
X208824499Y-81625659D01*
X208802048Y-81616530D01*
X208650521Y-81536843D01*
X208630267Y-81523512D01*
X208497156Y-81415868D01*
X208479881Y-81398849D01*
X208370260Y-81267350D01*
X208356629Y-81247295D01*
X208331244Y-81200722D01*
X208274698Y-81096977D01*
X208265234Y-81074661D01*
X208214123Y-80911267D01*
X208209182Y-80887530D01*
X208204202Y-80841292D01*
X208190196Y-80711249D01*
X208189489Y-80699135D01*
X208189000Y-80646881D01*
X208118365Y-73096829D01*
X208118855Y-73084604D01*
X208119147Y-73081356D01*
X208134818Y-72906533D01*
X208139392Y-72882517D01*
X208141734Y-72874580D01*
X208188246Y-72716942D01*
X208197439Y-72694300D01*
X208277841Y-72541523D01*
X208291298Y-72521125D01*
X208400122Y-72387092D01*
X208417316Y-72369737D01*
X208550318Y-72259671D01*
X208570593Y-72246020D01*
X208722613Y-72164191D01*
X208745166Y-72154788D01*
X208910282Y-72104385D01*
X208934241Y-72099589D01*
X209097310Y-72083432D01*
X209112169Y-72081960D01*
X209124395Y-72081356D01*
X218022772Y-72081356D01*
X218034926Y-72081953D01*
G37*
%TD.AperFunction*%
%TD*%
%TA.AperFunction,Conductor*%
%TO.N,GND*%
G36*
X232711459Y-124140017D02*
G01*
X232723530Y-124140699D01*
X232899440Y-124159274D01*
X232923128Y-124164148D01*
X233086272Y-124214725D01*
X233108560Y-124224105D01*
X233177133Y-124261214D01*
X233258773Y-124305395D01*
X233278824Y-124318929D01*
X233410391Y-124427835D01*
X233427434Y-124445006D01*
X233535351Y-124577387D01*
X233548735Y-124597540D01*
X233628891Y-124748351D01*
X233638107Y-124770719D01*
X233687455Y-124934224D01*
X233692153Y-124957957D01*
X233708909Y-125128904D01*
X233709500Y-125141000D01*
X233709500Y-132778984D01*
X233708903Y-132791139D01*
X233691982Y-132962935D01*
X233687240Y-132986775D01*
X233637424Y-133150998D01*
X233628121Y-133173456D01*
X233547227Y-133324798D01*
X233533722Y-133345010D01*
X233424854Y-133477666D01*
X233407666Y-133494854D01*
X233275010Y-133603722D01*
X233254798Y-133617227D01*
X233103456Y-133698121D01*
X233080998Y-133707424D01*
X232916775Y-133757240D01*
X232892935Y-133761982D01*
X232787046Y-133772411D01*
X232721136Y-133778903D01*
X232708984Y-133779500D01*
X227510315Y-133779500D01*
X227498161Y-133778903D01*
X227326364Y-133761982D01*
X227302523Y-133757240D01*
X227138300Y-133707424D01*
X227115842Y-133698121D01*
X226964500Y-133617227D01*
X226944288Y-133603722D01*
X226811632Y-133494854D01*
X226794444Y-133477666D01*
X226685576Y-133345010D01*
X226672071Y-133324798D01*
X226591177Y-133173456D01*
X226581874Y-133150998D01*
X226532056Y-132986769D01*
X226527317Y-132962941D01*
X226509896Y-132786061D01*
X226509299Y-132773907D01*
X226509299Y-125107131D01*
X226509902Y-125094919D01*
X226527488Y-124917214D01*
X226532275Y-124893264D01*
X226582562Y-124728328D01*
X226591946Y-124705791D01*
X226673587Y-124553909D01*
X226687206Y-124533650D01*
X226797040Y-124400709D01*
X226814363Y-124383516D01*
X226948123Y-124274683D01*
X226968471Y-124261224D01*
X227120977Y-124180717D01*
X227143577Y-124171504D01*
X227308901Y-124122453D01*
X227332864Y-124117850D01*
X227510715Y-124101596D01*
X227522896Y-124101085D01*
X232711459Y-124140017D01*
G37*
%TD.AperFunction*%
%TD*%
%TA.AperFunction,Conductor*%
%TO.N,BAT+*%
G36*
X126722232Y-71317682D02*
G01*
X134809075Y-71381059D01*
X136392486Y-71393469D01*
X136404630Y-71394160D01*
X136581407Y-71412975D01*
X136605212Y-71417905D01*
X136769069Y-71469027D01*
X136791455Y-71478508D01*
X136942184Y-71560618D01*
X136962290Y-71574285D01*
X137094100Y-71684230D01*
X137111154Y-71701559D01*
X137218978Y-71835111D01*
X137232322Y-71855434D01*
X137312011Y-72007454D01*
X137321133Y-72029990D01*
X137349231Y-72125390D01*
X137369627Y-72194637D01*
X137374177Y-72218520D01*
X137390163Y-72395572D01*
X137390661Y-72407734D01*
X137317025Y-81440299D01*
X137316333Y-81452409D01*
X137297586Y-81628581D01*
X137292680Y-81652311D01*
X137241843Y-81815646D01*
X137232416Y-81837968D01*
X137150781Y-81988305D01*
X137137192Y-82008367D01*
X137027885Y-82139949D01*
X137010654Y-82156987D01*
X136877844Y-82264798D01*
X136857630Y-82278158D01*
X136706381Y-82358088D01*
X136683953Y-82367262D01*
X136520050Y-82416250D01*
X136496267Y-82420887D01*
X136319896Y-82437640D01*
X136307782Y-82438194D01*
X128123230Y-82412356D01*
X127853326Y-82411503D01*
X125641787Y-82404522D01*
X125629658Y-82403889D01*
X125453194Y-82385981D01*
X125429415Y-82381183D01*
X125265647Y-82331046D01*
X125243256Y-82321709D01*
X125092387Y-82240646D01*
X125072251Y-82227134D01*
X124940050Y-82118246D01*
X124922924Y-82101066D01*
X124814457Y-81968526D01*
X124801003Y-81948339D01*
X124720419Y-81797217D01*
X124711153Y-81774797D01*
X124674076Y-81652311D01*
X124661532Y-81610870D01*
X124656811Y-81587084D01*
X124639460Y-81410561D01*
X124638865Y-81398431D01*
X124638865Y-72315346D01*
X124639468Y-72303132D01*
X124650207Y-72194637D01*
X124657062Y-72125382D01*
X124661851Y-72101434D01*
X124712158Y-71936470D01*
X124721550Y-71913919D01*
X124803221Y-71762018D01*
X124816849Y-71741752D01*
X124926720Y-71608806D01*
X124944053Y-71591609D01*
X125077855Y-71482784D01*
X125098227Y-71469317D01*
X125250765Y-71388837D01*
X125273379Y-71379624D01*
X125438743Y-71330610D01*
X125462717Y-71326011D01*
X125576938Y-71315607D01*
X125640609Y-71309809D01*
X125652827Y-71309302D01*
X126722232Y-71317682D01*
G37*
%TD.AperFunction*%
%TD*%
M02*
