%TF.GenerationSoftware,KiCad,Pcbnew,(7.0.0)*%
%TF.CreationDate,2023-03-03T13:32:30+01:00*%
%TF.ProjectId,Solar Cell offgrid Power,536f6c61-7220-4436-956c-6c206f666667,rev?*%
%TF.SameCoordinates,Original*%
%TF.FileFunction,Soldermask,Top*%
%TF.FilePolarity,Negative*%
%FSLAX46Y46*%
G04 Gerber Fmt 4.6, Leading zero omitted, Abs format (unit mm)*
G04 Created by KiCad (PCBNEW (7.0.0)) date 2023-03-03 13:32:30*
%MOMM*%
%LPD*%
G01*
G04 APERTURE LIST*
G04 Aperture macros list*
%AMRoundRect*
0 Rectangle with rounded corners*
0 $1 Rounding radius*
0 $2 $3 $4 $5 $6 $7 $8 $9 X,Y pos of 4 corners*
0 Add a 4 corners polygon primitive as box body*
4,1,4,$2,$3,$4,$5,$6,$7,$8,$9,$2,$3,0*
0 Add four circle primitives for the rounded corners*
1,1,$1+$1,$2,$3*
1,1,$1+$1,$4,$5*
1,1,$1+$1,$6,$7*
1,1,$1+$1,$8,$9*
0 Add four rect primitives between the rounded corners*
20,1,$1+$1,$2,$3,$4,$5,0*
20,1,$1+$1,$4,$5,$6,$7,0*
20,1,$1+$1,$6,$7,$8,$9,0*
20,1,$1+$1,$8,$9,$2,$3,0*%
G04 Aperture macros list end*
%ADD10RoundRect,0.250000X-0.262500X-0.450000X0.262500X-0.450000X0.262500X0.450000X-0.262500X0.450000X0*%
%ADD11RoundRect,0.150000X-0.150000X0.512500X-0.150000X-0.512500X0.150000X-0.512500X0.150000X0.512500X0*%
%ADD12R,3.000000X3.000000*%
%ADD13R,1.700000X1.700000*%
%ADD14O,1.700000X1.700000*%
%ADD15R,1.500000X1.500000*%
%ADD16RoundRect,0.250000X-0.250000X-0.750000X0.250000X-0.750000X0.250000X0.750000X-0.250000X0.750000X0*%
%ADD17C,3.200000*%
%ADD18C,2.400000*%
%ADD19RoundRect,0.225000X-0.225000X-0.375000X0.225000X-0.375000X0.225000X0.375000X-0.225000X0.375000X0*%
%ADD20C,1.100000*%
%ADD21R,2.200000X2.200000*%
%ADD22C,2.200000*%
G04 APERTURE END LIST*
D10*
%TO.C,R1*%
X127087500Y-93360000D03*
X128912500Y-93360000D03*
%TD*%
D11*
%TO.C,T2*%
X125450000Y-89367500D03*
X124500000Y-87092500D03*
X126400000Y-87092500D03*
%TD*%
%TO.C,T1*%
X122780000Y-87155000D03*
X120880000Y-87155000D03*
X121830000Y-89430000D03*
%TD*%
D12*
%TO.C,TPBAT_NEG1*%
X213589999Y-76289999D03*
%TD*%
D13*
%TO.C,J2*%
X113289999Y-111149999D03*
D14*
X113289999Y-108609999D03*
X113289999Y-106069999D03*
X113289999Y-103529999D03*
X113289999Y-100989999D03*
X113289999Y-98449999D03*
X113289999Y-95909999D03*
X113289999Y-93369999D03*
X113289999Y-90829999D03*
X113289999Y-88289999D03*
%TD*%
D15*
%TO.C,BK4*%
X161369999Y-132239999D03*
X161369999Y-130379999D03*
%TD*%
%TO.C,BK8*%
X172739999Y-132224999D03*
X172739999Y-130364999D03*
%TD*%
D16*
%TO.C,J4*%
X119900000Y-125080000D03*
X122390000Y-125070000D03*
X124910000Y-125080000D03*
X124830000Y-119450000D03*
X122410000Y-119430000D03*
X119900000Y-119440000D03*
%TD*%
D17*
%TO.C,BT2*%
X144250000Y-77270000D03*
X144250000Y-96570000D03*
X199870000Y-77270000D03*
X199870000Y-96570000D03*
D18*
X135460000Y-77270000D03*
X208360000Y-77270000D03*
X135460000Y-96570000D03*
X208360000Y-96570000D03*
%TD*%
D15*
%TO.C,BK7*%
X169589999Y-132219999D03*
X169589999Y-130359999D03*
%TD*%
D12*
%TO.C,BAT_POS2*%
X131169999Y-77089999D03*
%TD*%
D15*
%TO.C,BK6*%
X166749999Y-132249999D03*
X166749999Y-130389999D03*
%TD*%
D12*
%TO.C,TPSC_NEG1*%
X231839999Y-130129999D03*
%TD*%
D15*
%TO.C,BK3*%
X181869999Y-132234999D03*
X181869999Y-130374999D03*
%TD*%
%TO.C,BK2*%
X178829999Y-132174999D03*
X178829999Y-130314999D03*
%TD*%
D13*
%TO.C,J1*%
X223579999Y-111109999D03*
D14*
X223579999Y-108569999D03*
X223579999Y-106029999D03*
X223579999Y-103489999D03*
X223579999Y-100949999D03*
X223579999Y-98409999D03*
X223579999Y-95869999D03*
X223579999Y-93329999D03*
X223579999Y-90789999D03*
X223579999Y-88249999D03*
%TD*%
D19*
%TO.C,D1*%
X128450000Y-89670000D03*
X131750000Y-89670000D03*
%TD*%
D20*
%TO.C,J3*%
X110290000Y-79330000D03*
X110290000Y-81870000D03*
D21*
X112829999Y-79329999D03*
D22*
X112830000Y-81870000D03*
%TD*%
D12*
%TO.C,SC_POS1*%
X231709999Y-69829999D03*
%TD*%
D15*
%TO.C,BK1*%
X175719999Y-132194999D03*
X175719999Y-130334999D03*
%TD*%
%TO.C,BK5*%
X164069999Y-132239999D03*
X164069999Y-130379999D03*
%TD*%
M02*
