%TF.GenerationSoftware,KiCad,Pcbnew,(7.0.0)*%
%TF.CreationDate,2023-03-03T13:32:30+01:00*%
%TF.ProjectId,Solar Cell offgrid Power,536f6c61-7220-4436-956c-6c206f666667,rev?*%
%TF.SameCoordinates,Original*%
%TF.FileFunction,Copper,L2,Bot*%
%TF.FilePolarity,Positive*%
%FSLAX46Y46*%
G04 Gerber Fmt 4.6, Leading zero omitted, Abs format (unit mm)*
G04 Created by KiCad (PCBNEW (7.0.0)) date 2023-03-03 13:32:30*
%MOMM*%
%LPD*%
G01*
G04 APERTURE LIST*
%TA.AperFunction,ComponentPad*%
%ADD10R,1.700000X1.700000*%
%TD*%
%TA.AperFunction,ComponentPad*%
%ADD11O,1.700000X1.700000*%
%TD*%
%TA.AperFunction,ComponentPad*%
%ADD12C,2.400000*%
%TD*%
%TA.AperFunction,ComponentPad*%
%ADD13R,2.200000X2.200000*%
%TD*%
%TA.AperFunction,ComponentPad*%
%ADD14C,2.200000*%
%TD*%
%TA.AperFunction,ViaPad*%
%ADD15C,0.800000*%
%TD*%
%TA.AperFunction,Conductor*%
%ADD16C,0.400000*%
%TD*%
%TA.AperFunction,Conductor*%
%ADD17C,0.150000*%
%TD*%
%TA.AperFunction,Conductor*%
%ADD18C,0.200000*%
%TD*%
%TA.AperFunction,Conductor*%
%ADD19C,1.000000*%
%TD*%
G04 APERTURE END LIST*
D10*
%TO.P,J2,1,Pin_1*%
%TO.N,Conn_track_1*%
X113289999Y-111149999D03*
D11*
%TO.P,J2,2,Pin_2*%
%TO.N,Conn_track_2*%
X113289999Y-108609999D03*
%TO.P,J2,3,Pin_3*%
%TO.N,Conn_track_3*%
X113289999Y-106069999D03*
%TO.P,J2,4,Pin_4*%
%TO.N,Conn_track_4*%
X113289999Y-103529999D03*
%TO.P,J2,5,Pin_5*%
%TO.N,PWR*%
X113289999Y-100989999D03*
%TO.P,J2,6,Pin_6*%
%TO.N,GND*%
X113289999Y-98449999D03*
%TO.P,J2,7,Pin_7*%
%TO.N,Conn_track_7*%
X113289999Y-95909999D03*
%TO.P,J2,8,Pin_8*%
%TO.N,Conn_track_8*%
X113289999Y-93369999D03*
%TO.P,J2,9,Pin_9*%
%TO.N,Conn_track_9*%
X113289999Y-90829999D03*
%TO.P,J2,10,Pin_10*%
%TO.N,Conn_track_10*%
X113289999Y-88289999D03*
%TD*%
D12*
%TO.P,BT2,1+*%
%TO.N,BAT+*%
X135460000Y-77270000D03*
%TO.P,BT2,1-*%
%TO.N,GND*%
X208360000Y-77270000D03*
%TO.P,BT2,2+*%
%TO.N,BAT+*%
X135460000Y-96570000D03*
%TO.P,BT2,2-*%
%TO.N,GND*%
X208360000Y-96570000D03*
%TD*%
D10*
%TO.P,J1,1,Pin_1*%
%TO.N,Conn_track_1*%
X223579999Y-111109999D03*
D11*
%TO.P,J1,2,Pin_2*%
%TO.N,Conn_track_2*%
X223579999Y-108569999D03*
%TO.P,J1,3,Pin_3*%
%TO.N,Conn_track_3*%
X223579999Y-106029999D03*
%TO.P,J1,4,Pin_4*%
%TO.N,Conn_track_4*%
X223579999Y-103489999D03*
%TO.P,J1,5,Pin_5*%
%TO.N,PWR*%
X223579999Y-100949999D03*
%TO.P,J1,6,Pin_6*%
%TO.N,GND*%
X223579999Y-98409999D03*
%TO.P,J1,7,Pin_7*%
%TO.N,Conn_track_7*%
X223579999Y-95869999D03*
%TO.P,J1,8,Pin_8*%
%TO.N,Conn_track_8*%
X223579999Y-93329999D03*
%TO.P,J1,9,Pin_9*%
%TO.N,Conn_track_9*%
X223579999Y-90789999D03*
%TO.P,J1,10,Pin_10*%
%TO.N,Conn_track_10*%
X223579999Y-88249999D03*
%TD*%
D13*
%TO.P,J3,1,Pin_1*%
%TO.N,GND*%
X112829999Y-79329999D03*
D14*
%TO.P,J3,2,Pin_2*%
%TO.N,PWR_HOME*%
X112830000Y-81870000D03*
%TD*%
D15*
%TO.N,Conn_track_10*%
X181720000Y-126330000D03*
%TO.N,Conn_track_9*%
X178850000Y-126340000D03*
%TO.N,Conn_track_8*%
X175220000Y-126070000D03*
%TO.N,Conn_track_7*%
X172250000Y-126360000D03*
%TO.N,Conn_track_4*%
X168910000Y-126520000D03*
%TO.N,Conn_track_3*%
X166560000Y-126250000D03*
%TO.N,Conn_track_2*%
X164010000Y-126150000D03*
%TO.N,Conn_track_1*%
X161340000Y-126200000D03*
%TO.N,BAT+*%
X183690000Y-130770000D03*
X181690000Y-109880000D03*
%TO.N,Conn_track_10*%
X178540000Y-109910000D03*
%TO.N,Conn_track_9*%
X177080000Y-110000000D03*
%TO.N,Conn_track_8*%
X175220000Y-109990000D03*
%TO.N,Conn_track_7*%
X172070000Y-109930000D03*
%TO.N,Conn_track_4*%
X168880000Y-109910000D03*
%TO.N,Conn_track_3*%
X166090000Y-110010000D03*
%TO.N,Conn_track_2*%
X163190000Y-109900000D03*
%TO.N,Net-(D1-A)*%
X165380000Y-89680000D03*
X132900000Y-89680000D03*
%TO.N,BAT+*%
X181720000Y-87070000D03*
X125090000Y-85385000D03*
%TO.N,Conn_track_8*%
X175230000Y-92150000D03*
%TO.N,GND*%
X115170000Y-85350000D03*
%TO.N,Conn_track_9*%
X177070000Y-90770000D03*
%TO.N,Conn_track_10*%
X178560000Y-88190000D03*
%TO.N,Conn_track_2*%
X163290000Y-107620000D03*
%TO.N,Conn_track_3*%
X166090000Y-105980000D03*
%TO.N,Conn_track_4*%
X168860000Y-103530000D03*
%TO.N,Conn_track_7*%
X172030000Y-93670000D03*
%TD*%
D16*
%TO.N,Net-(D1-A)*%
X132900000Y-89680000D02*
X165380000Y-89680000D01*
D17*
%TO.N,Conn_track_2*%
X163190000Y-125160000D02*
X164080000Y-126050000D01*
X163190000Y-109900000D02*
X163190000Y-125160000D01*
%TO.N,Conn_track_3*%
X166090000Y-110010000D02*
X166090000Y-125730000D01*
X166090000Y-125730000D02*
X166570000Y-126210000D01*
%TO.N,BAT+*%
X183780000Y-125640000D02*
X183780000Y-130680000D01*
X181690000Y-109880000D02*
X181690000Y-123550000D01*
X181690000Y-123550000D02*
X183780000Y-125640000D01*
%TO.N,Conn_track_10*%
X178540000Y-123230000D02*
X181620000Y-126310000D01*
X178540000Y-109910000D02*
X178540000Y-123230000D01*
%TO.N,Conn_track_9*%
X177080000Y-124460000D02*
X178980000Y-126360000D01*
X177080000Y-110000000D02*
X177080000Y-124460000D01*
%TO.N,Conn_track_8*%
X175220000Y-125990000D02*
X175310000Y-126080000D01*
X175220000Y-109990000D02*
X175220000Y-125990000D01*
%TO.N,Conn_track_7*%
X172070000Y-126210000D02*
X172250000Y-126390000D01*
X172070000Y-109930000D02*
X172070000Y-126210000D01*
%TO.N,Conn_track_4*%
X168880000Y-126520000D02*
X169060000Y-126700000D01*
X168880000Y-109910000D02*
X168880000Y-126520000D01*
D18*
%TO.N,BAT+*%
X180050000Y-85400000D02*
X125105000Y-85400000D01*
X181720000Y-87070000D02*
X180050000Y-85400000D01*
X125105000Y-85400000D02*
X125090000Y-85385000D01*
%TO.N,Conn_track_1*%
X161200000Y-126040000D02*
X161230000Y-126070000D01*
X161200000Y-109090000D02*
X161200000Y-126040000D01*
X161200000Y-109090000D02*
X118130000Y-109090000D01*
X220130000Y-109090000D02*
X161200000Y-109090000D01*
%TO.N,Conn_track_8*%
X117020000Y-92150000D02*
X115800000Y-93370000D01*
X221900000Y-93330000D02*
X220720000Y-92150000D01*
X220720000Y-92150000D02*
X117020000Y-92150000D01*
X115800000Y-93370000D02*
X113290000Y-93370000D01*
X223580000Y-93330000D02*
X221900000Y-93330000D01*
%TO.N,Conn_track_7*%
X115190000Y-95910000D02*
X113290000Y-95910000D01*
X172030000Y-93670000D02*
X117430000Y-93670000D01*
X117430000Y-93670000D02*
X115190000Y-95910000D01*
%TO.N,Conn_track_2*%
X116540000Y-108610000D02*
X113290000Y-108610000D01*
X117580000Y-107570000D02*
X116540000Y-108610000D01*
X163290000Y-107620000D02*
X163240000Y-107570000D01*
X163240000Y-107570000D02*
X117580000Y-107570000D01*
%TO.N,Conn_track_1*%
X116070000Y-111150000D02*
X113290000Y-111150000D01*
X118130000Y-109090000D02*
X116070000Y-111150000D01*
X222150000Y-111110000D02*
X220130000Y-109090000D01*
X223580000Y-111110000D02*
X222150000Y-111110000D01*
%TO.N,Conn_track_2*%
X163340000Y-107570000D02*
X163290000Y-107620000D01*
X220600000Y-107570000D02*
X163340000Y-107570000D01*
X221600000Y-108570000D02*
X220600000Y-107570000D01*
X223580000Y-108570000D02*
X221600000Y-108570000D01*
%TO.N,Conn_track_7*%
X222470000Y-95870000D02*
X223580000Y-95870000D01*
X176770000Y-92970000D02*
X219570000Y-92970000D01*
X219570000Y-92970000D02*
X222470000Y-95870000D01*
X176140000Y-93600000D02*
X176770000Y-92970000D01*
X172100000Y-93600000D02*
X176140000Y-93600000D01*
X172030000Y-93670000D02*
X172100000Y-93600000D01*
%TO.N,Conn_track_9*%
X223580000Y-90790000D02*
X177090000Y-90790000D01*
X177090000Y-90790000D02*
X177070000Y-90770000D01*
%TO.N,Conn_track_10*%
X223580000Y-88250000D02*
X113330000Y-88250000D01*
X113330000Y-88250000D02*
X113290000Y-88290000D01*
D19*
%TO.N,GND*%
X115170000Y-85350000D02*
X116150000Y-85350000D01*
X117840000Y-83660000D02*
X117840000Y-80400000D01*
X116150000Y-85350000D02*
X117840000Y-83660000D01*
X117840000Y-80400000D02*
X116770000Y-79330000D01*
X116770000Y-79330000D02*
X112830000Y-79330000D01*
D18*
%TO.N,Conn_track_9*%
X177050000Y-90790000D02*
X113330000Y-90790000D01*
X113330000Y-90790000D02*
X113290000Y-90830000D01*
X177070000Y-90770000D02*
X177050000Y-90790000D01*
%TO.N,Conn_track_3*%
X223580000Y-106030000D02*
X166140000Y-106030000D01*
X166140000Y-106030000D02*
X166090000Y-105980000D01*
X166090000Y-105980000D02*
X166040000Y-106030000D01*
X166040000Y-106030000D02*
X113330000Y-106030000D01*
X113330000Y-106030000D02*
X113290000Y-106070000D01*
%TO.N,Conn_track_4*%
X223580000Y-103490000D02*
X169370000Y-103490000D01*
X169370000Y-103490000D02*
X113330000Y-103490000D01*
X113330000Y-103490000D02*
X113290000Y-103530000D01*
%TD*%
M02*
