M48
; DRILL file {KiCad (7.0.0)} date Fri Mar  3 13:32:33 2023
; FORMAT={-:-/ absolute / inch / decimal}
; #@! TF.CreationDate,2023-03-03T13:32:33+01:00
; #@! TF.GenerationSoftware,Kicad,Pcbnew,(7.0.0)
; #@! TF.FileFunction,Plated,1,2,PTH
FMAT,2
INCH
; #@! TA.AperFunction,Plated,PTH,ViaDrill
T1C0.0157
; #@! TA.AperFunction,Plated,PTH,ComponentDrill
T2C0.0394
; #@! TA.AperFunction,Plated,PTH,ComponentDrill
T3C0.0433
; #@! TA.AperFunction,Plated,PTH,ComponentDrill
T4C0.0630
%
G90
G05
T1
X4.5343Y-3.3602
X4.9248Y-3.3616
X5.2323Y-3.5307
X6.352Y-4.9685
X6.4248Y-4.3268
X6.4287Y-4.237
X6.4571Y-4.9665
X6.511Y-3.5307
X6.539Y-4.1724
X6.539Y-4.3311
X6.5575Y-4.9705
X6.648Y-4.076
X6.6488Y-4.3272
X6.65Y-4.9811
X6.7728Y-3.6878
X6.7744Y-4.328
X6.7815Y-4.9748
X6.8984Y-4.3303
X6.8984Y-4.9634
X6.8988Y-3.628
X6.9713Y-3.5736
X6.9717Y-4.3307
X7.0291Y-4.3272
X7.0299Y-3.472
X7.0413Y-4.974
X7.1531Y-4.326
X7.1543Y-3.428
X7.1543Y-4.9736
X7.2319Y-5.1484
T2
X4.4602Y-3.476
X4.4602Y-3.576
X4.4602Y-3.676
X4.4602Y-3.776
X4.4602Y-3.876
X4.4602Y-3.976
X4.4602Y-4.076
X4.4602Y-4.176
X4.4602Y-4.276
X4.4602Y-4.376
X8.8024Y-3.4744
X8.8024Y-3.5744
X8.8024Y-3.6744
X8.8024Y-3.7744
X8.8024Y-3.8744
X8.8024Y-3.9744
X8.8024Y-4.0744
X8.8024Y-4.1744
X8.8024Y-4.2744
X8.8024Y-4.3744
T3
X4.4421Y-3.1232
X4.4421Y-3.2232
T4
X5.3331Y-3.0421
X5.3331Y-3.802
X8.2031Y-3.0421
X8.2031Y-3.802
T0
M30
